<?xml version="1.0" standalone="no"?>
<!DOCTYPE svg PUBLIC "-//W3C//DTD SVG 20010904//EN"
 "http://www.w3.org/TR/2001/REC-SVG-20010904/DTD/svg10.dtd">
<svg version="1.0" xmlns="http://www.w3.org/2000/svg"
 width="700.000000pt" height="700.000000pt" viewBox="0 0 700.000000 700.000000"
 preserveAspectRatio="xMidYMid meet">
<metadata>
Created by potrace 1.11, written by Peter Selinger 2001-2013
</metadata>
<g transform="translate(0.000000,700.000000) scale(0.100000,-0.100000)"
fill="#000000" stroke="none">
<path d="M3375 6993 c-528 -25 -1000 -149 -1461 -383 -616 -313 -1132 -811
-1468 -1419 -83 -151 -167 -331 -153 -331 30 0 710 -84 1052 -130 1751 -234
2822 -483 3053 -709 120 -116 79 -178 -223 -334 -352 -182 -497 -297 -535
-424 -32 -104 65 -206 274 -288 233 -91 529 -157 1321 -290 887 -150 1174
-213 1460 -320 53 -20 98 -35 100 -33 1 2 14 39 28 83 208 640 227 1331 56
1973 -159 597 -474 1147 -904 1578 -77 77 -184 177 -239 222 -492 406 -1112
679 -1751 771 -130 19 -451 43 -520 39 -16 -1 -57 -3 -90 -5z"/>
<path d="M166 4543 c-175 -541 -209 -1174 -91 -1734 163 -775 597 -1498 1202
-2001 102 -85 257 -198 271 -198 38 0 705 301 1014 457 482 243 785 443 957
630 123 133 155 233 109 335 -37 78 -96 148 -192 223 -125 97 -232 159 -627
360 -460 234 -613 334 -674 439 -47 83 -41 149 19 228 87 114 291 225 676 368
319 119 433 204 398 300 -68 186 -764 374 -2013 545 -267 36 -986 125 -1016
125 -4 0 -19 -35 -33 -77z"/>
</g>
</svg>
