<?xml version="1.0" encoding="UTF-8" standalone="no"?>
<svg
   xmlns:dc="http://purl.org/dc/elements/1.1/"
   xmlns:cc="http://creativecommons.org/ns#"
   xmlns:rdf="http://www.w3.org/1999/02/22-rdf-syntax-ns#"
   xmlns:svg="http://www.w3.org/2000/svg"
   xmlns="http://www.w3.org/2000/svg"
   xmlns:sodipodi="http://sodipodi.sourceforge.net/DTD/sodipodi-0.dtd"
   xmlns:inkscape="http://www.inkscape.org/namespaces/inkscape"
   width="332.67163"
   height="124.33996"
   id="svg10"
   version="1.1"
   inkscape:version="0.91 r13725"
   sodipodi:docname="logo-flow.svg">
  <sodipodi:namedview
     pagecolor="#ffffff"
     bordercolor="#666666"
     borderopacity="1"
     objecttolerance="10"
     gridtolerance="10"
     guidetolerance="10"
     inkscape:pageopacity="0"
     inkscape:pageshadow="2"
     inkscape:window-width="1440"
     inkscape:window-height="851"
     id="namedview22"
     showgrid="false"
     showguides="true"
     inkscape:guide-bbox="true"
     inkscape:zoom="1.4142136"
     inkscape:cx="36.112644"
     inkscape:cy="-65.967692"
     inkscape:window-x="0"
     inkscape:window-y="1"
     inkscape:window-maximized="1"
     inkscape:current-layer="svg10"
     fit-margin-top="0"
     fit-margin-left="0"
     fit-margin-right="0"
     fit-margin-bottom="0"
     showborder="false" />
  <metadata
     id="metadata26">
    <rdf:RDF>
      <cc:Work
         rdf:about="">
        <dc:format>image/svg+xml</dc:format>
        <dc:type
           rdf:resource="http://purl.org/dc/dcmitype/StillImage" />
        <dc:title></dc:title>
      </cc:Work>
    </rdf:RDF>
  </metadata>
  <defs
     id="defs24" />
  <g
     id="g4780"
     transform="translate(-16.147169,-12.086283)">
    <g
       transform="translate(-13.784104,-120.56515)"
       id="g7893">
      <text
         xml:space="preserve"
         style="font-style:normal;font-weight:normal;font-size:40px;line-height:125%;font-family:sans-serif;letter-spacing:0px;word-spacing:0px;fill:#000000;fill-opacity:1;stroke:none;stroke-width:1px;stroke-linecap:butt;stroke-linejoin:miter;stroke-opacity:1"
         x="159.22977"
         y="193.41557"
         id="text7865"
         sodipodi:linespacing="125%"><tspan
           sodipodi:role="line"
           id="tspan7867"
           x="159.22977"
           y="193.41557"
           style="font-style:normal;font-variant:normal;font-weight:bold;font-stretch:normal;font-size:40px;line-height:125%;font-family:'Source Sans Pro';-inkscape-font-specification:'Source Sans Pro, Bold';text-align:start;writing-mode:lr-tb;text-anchor:start">Esther Bieri</tspan></text>
      <text
         xml:space="preserve"
         style="font-style:normal;font-weight:normal;font-size:32.59654999px;line-height:125%;font-family:sans-serif;letter-spacing:0px;word-spacing:0px;fill:#000000;fill-opacity:1;stroke:none;stroke-width:1px;stroke-linecap:butt;stroke-linejoin:miter;stroke-opacity:1"
         x="159.17085"
         y="218.44786"
         id="text7865-6"
         sodipodi:linespacing="125%"><tspan
           sodipodi:role="line"
           id="tspan7867-4"
           x="159.17085"
           y="218.44786"
           style="font-style:normal;font-variant:normal;font-weight:300;font-stretch:normal;font-size:32.59654999px;line-height:125%;font-family:'Source Sans Pro';-inkscape-font-specification:'Source Sans Pro, Light';text-align:start;writing-mode:lr-tb;text-anchor:start">Psychotherapie</tspan></text>
    </g>
    <g
       transform="matrix(1.2139112,-0.06437576,0.06437576,1.2139112,12.560317,15.036562)"
       id="g4810">
      <path
         inkscape:connector-curvature="0"
         style="opacity:0.92000002;fill:#6698ff;fill-opacity:1"
         d="m 20.683594,92.302734 c 3.658582,-1.294512 7.495995,-2.712337 11.205078,-4.232422 3.896672,-1.596963 7.636509,-3.283574 10.835937,-4.988281 1.599714,-0.852353 3.064967,-1.710343 4.345703,-2.5625 1.280737,-0.852156 2.376873,-1.699331 3.242188,-2.533203 0.865315,-0.833872 1.500066,-1.653673 1.853516,-2.451172 0.353449,-0.797498 0.426735,-1.573369 0.171875,-2.316406 -0.210334,-0.613221 -0.549772,-1.21057 -0.992188,-1.796875 -0.442416,-0.586305 -0.988793,-1.160346 -1.615234,-1.722656 -1.252884,-1.124621 -2.824749,-2.203827 -4.525391,-3.25 -3.401283,-2.092347 -7.313652,-4.051906 -10.199219,-5.970703 -1.442783,-0.959399 -2.63002,-1.908304 -3.367187,-2.859375 -0.368584,-0.475536 -0.624047,-0.951851 -0.744141,-1.429688 -0.120094,-0.477837 -0.104187,-0.958347 0.07227,-1.441406 C 31.14325,54.264988 31.478942,53.778313 32,53.287109 c 0.521058,-0.491203 1.226906,-0.986012 2.140625,-1.488281 1.827439,-1.004539 4.489353,-2.03523 8.175781,-3.101562 2.337598,-0.676172 3.889814,-1.370951 4.767578,-2.078125 0.438882,-0.353588 0.709165,-0.709747 0.824219,-1.06836 0.115054,-0.358613 0.07393,-0.720209 -0.107422,-1.082031 C 47.438075,43.745105 46.510766,43.018552 45.126953,42.292969 43.743141,41.567386 41.904305,40.843848 39.71875,40.130859 35.347639,38.704883 29.591979,37.3177 23.330078,36.029297 17.095272,34.746468 10.359607,33.562686 3.9863281,32.53125 A 51.1455,51.1455 0 0 0 0.2890625,51.513672 51.1455,51.1455 0 0 0 20.683594,92.302734 Z"
         id="path4251" />
      <g
         id="g4806">
        <path
           inkscape:connector-curvature="0"
           id="path4249"
           d="m 98.617188,71.226562 c -1.076207,-0.49219 -2.156259,-0.984294 -3.388672,-1.453124 -2.141255,-0.814576 -4.710323,-1.568343 -7.509766,-2.289063 -2.799443,-0.72072 -5.829778,-1.408341 -8.892578,-2.085937 -6.1256,-1.355194 -12.383325,-2.675025 -17.19336,-4.16211 -2.405017,-0.743542 -4.447762,-1.528248 -5.93164,-2.380859 -0.741939,-0.426306 -1.343627,-0.868946 -1.78125,-1.332031 -0.437623,-0.463086 -0.710969,-0.94692 -0.794922,-1.453126 -0.08395,-0.506205 0.02077,-1.034175 0.339844,-1.589843 0.31907,-0.555668 0.851598,-1.138529 1.623047,-1.75 0.771448,-0.611472 1.781507,-1.252165 3.054687,-1.925781 1.27318,-0.673617 2.8105,-1.380945 4.634766,-2.123047 0.99792,-0.40595 1.725244,-0.823388 2.207031,-1.251953 0.481787,-0.428566 0.716736,-0.867928 0.732422,-1.314454 0.01569,-0.446526 -0.18946,-0.899544 -0.589844,-1.359375 C 64.726569,44.296028 64.131655,43.829808 63.365234,43.361328 61.832393,42.424368 59.61672,41.474873 56.919922,40.53125 54.223123,39.587627 51.044483,38.649369 47.583984,37.736328 40.662987,35.910246 32.615274,34.183407 25.041016,32.703125 17.525325,31.23429 10.512494,30.015813 5.4941406,29.179688 A 51.1455,51.1455 0 0 0 3.9863281,32.53125 c 6.3732789,1.031436 13.1089439,2.215218 19.3437499,3.498047 6.261901,1.288403 12.017561,2.675586 16.388672,4.101562 2.185555,0.712989 4.024391,1.436527 5.408203,2.16211 1.383813,0.725583 2.311122,1.452136 2.673828,2.175781 0.181353,0.361822 0.222476,0.723418 0.107422,1.082031 -0.115054,0.358613 -0.385337,0.714772 -0.824219,1.06836 -0.877764,0.707174 -2.42998,1.401953 -4.767578,2.078125 -3.686428,1.066332 -6.348342,2.097023 -8.175781,3.101562 -0.913719,0.502269 -1.619567,0.997078 -2.140625,1.488281 -0.521058,0.491204 -0.85675,0.977879 -1.033203,1.460938 -0.176453,0.483059 -0.19236,0.963569 -0.07227,1.441406 0.120094,0.477837 0.375557,0.954152 0.744141,1.429688 0.737167,0.951071 1.924404,1.899976 3.367187,2.859375 2.885567,1.918797 6.797936,3.878356 10.199219,5.970703 1.700642,1.046173 3.272507,2.125379 4.525391,3.25 0.626441,0.56231 1.172818,1.136351 1.615234,1.722656 0.442416,0.586305 0.781854,1.183654 0.992188,1.796875 0.25486,0.743037 0.181574,1.518908 -0.171875,2.316406 -0.35345,0.797499 -0.988201,1.6173 -1.853516,2.451172 -0.865315,0.833872 -1.961451,1.681047 -3.242188,2.533203 -1.280736,0.852157 -2.745989,1.710147 -4.345703,2.5625 -3.199428,1.704707 -6.939265,3.391318 -10.835937,4.988281 -3.709083,1.520085 -7.546496,2.93791 -11.205078,4.232422 A 51.1455,51.1455 0 0 0 51.435547,102.66016 51.1455,51.1455 0 0 0 98.617188,71.226562 Z"
           style="opacity:0.92000002;fill:#c6deff;fill-opacity:1" />
        <path
           inkscape:connector-curvature="0"
           id="path4153-1"
           d="M 51.435547,0.36914062 A 51.1455,51.1455 0 0 0 5.4941406,29.179688 c 5.0183534,0.836125 12.0311844,2.054602 19.5468754,3.523437 7.574258,1.480282 15.621971,3.207121 22.542968,5.033203 3.460499,0.913041 6.639139,1.851299 9.335938,2.794922 2.696798,0.943623 4.912471,1.893118 6.445312,2.830078 0.766421,0.46848 1.361335,0.9347 1.761719,1.394531 0.400384,0.459831 0.60553,0.912849 0.589844,1.359375 -0.01569,0.446526 -0.250635,0.885888 -0.732422,1.314454 -0.481787,0.428565 -1.209111,0.846003 -2.207031,1.251953 -1.824266,0.742102 -3.361586,1.44943 -4.634766,2.123047 -1.27318,0.673616 -2.283239,1.314309 -3.054687,1.925781 -0.771449,0.611471 -1.303977,1.194332 -1.623047,1.75 -0.319071,0.555668 -0.423797,1.083638 -0.339844,1.589843 0.08395,0.506206 0.357299,0.99004 0.794922,1.453126 0.437623,0.463085 1.039311,0.905725 1.78125,1.332031 1.483878,0.852611 3.526623,1.637317 5.93164,2.380859 4.810035,1.487085 11.06776,2.806916 17.19336,4.16211 3.0628,0.677596 6.093135,1.365217 8.892578,2.085937 2.799443,0.72072 5.368511,1.474487 7.509766,2.289063 1.232413,0.46883 2.312465,0.960934 3.388672,1.453124 A 51.1455,51.1455 0 0 0 102.58008,51.513672 51.1455,51.1455 0 0 0 51.435547,0.36914062 Z"
           style="opacity:0.92000002;fill:#6698ff;fill-opacity:1" />
      </g>
    </g>
  </g>
</svg>
