<?xml version="1.0" encoding="UTF-8" standalone="no"?>
<svg
   xmlns:dc="http://purl.org/dc/elements/1.1/"
   xmlns:cc="http://creativecommons.org/ns#"
   xmlns:rdf="http://www.w3.org/1999/02/22-rdf-syntax-ns#"
   xmlns:svg="http://www.w3.org/2000/svg"
   xmlns="http://www.w3.org/2000/svg"
   xmlns:sodipodi="http://sodipodi.sourceforge.net/DTD/sodipodi-0.dtd"
   xmlns:inkscape="http://www.inkscape.org/namespaces/inkscape"
   width="124.338"
   height="124.33801"
   id="svg10"
   version="1.1"
   inkscape:version="0.91 r13725"
   sodipodi:docname="logo.svg">
  <sodipodi:namedview
     pagecolor="#ffffff"
     bordercolor="#666666"
     borderopacity="1"
     objecttolerance="10"
     gridtolerance="10"
     guidetolerance="10"
     inkscape:pageopacity="0"
     inkscape:pageshadow="2"
     inkscape:window-width="1440"
     inkscape:window-height="851"
     id="namedview22"
     showgrid="false"
     showguides="true"
     inkscape:guide-bbox="true"
     inkscape:zoom="1.4142136"
     inkscape:cx="56.618738"
     inkscape:cy="75.453656"
     inkscape:window-x="20"
     inkscape:window-y="88"
     inkscape:window-maximized="0"
     inkscape:current-layer="svg10"
     fit-margin-top="0"
     fit-margin-left="0"
     fit-margin-right="0"
     fit-margin-bottom="0"
     showborder="false" />
  <metadata
     id="metadata26">
    <rdf:RDF>
      <cc:Work
         rdf:about="">
        <dc:format>image/svg+xml</dc:format>
        <dc:type
           rdf:resource="http://purl.org/dc/dcmitype/StillImage" />
        <dc:title></dc:title>
      </cc:Work>
    </rdf:RDF>
  </metadata>
  <defs
     id="defs24" />
  <g
     id="g4214"
     transform="translate(-16.147171,-12.088233)">
    <circle
       transform="matrix(0,-1,1,0,0,0)"
       style="fill:#c6deff;fill-opacity:1"
       id="circle12-8"
       r="62.168999"
       cy="78.31617"
       cx="-74.25724" />
    <path
       inkscape:connector-curvature="0"
       id="circle12"
       d="m 78.317096,12.088233 a 62.168999,62.168999 0 0 0 -59.841797,45.55078 c 25.576545,2.17212 69.148702,6.81504 70.935542,11.14453 2.42571,5.87678 -14.447174,5.52109 -16.568354,11.89258 -2.003065,6.01667 36.697553,4.84324 63.341793,16.125 a 62.168999,62.168999 0 0 0 4.30078,-22.54492 62.168999,62.168999 0 0 0 -62.167964,-62.16797 z m -60.998047,50.25781 a 62.168999,62.168999 0 0 0 -1.171875,11.91016 62.168999,62.168999 0 0 0 22.464844,47.812497 c 10.772504,-6.90966 41.77843,-17.7521 42.097656,-25.728517 0.2783,-6.95371 -42.2589,-1.2936 -43.365234,-12.16406 -0.526461,-5.17282 28.28212,-9.43202 26.527343,-14.01758 -1.754605,-4.58565 -22.371328,-6.84176 -27.253906,-6.88086 -7.635131,-0.0612 -13.945522,-0.40229 -19.298828,-0.93164 z"
       style="fill:#6698ff;fill-opacity:1" />
  </g>
</svg>
